<?xml version="1.0" encoding="UTF-8"?><svg id="Layer_1" xmlns="http://www.w3.org/2000/svg" viewBox="0 0 100 100"><path d="M50,0C22.39,0,0,22.39,0,50s22.39,50,50,50,50-22.39,50-50S77.61,0,50,0Zm24.88,68.72c-.9,.82-1.98,1.6-3.24,2.34-1.27,.74-2.59,1.38-3.99,1.92-1.39,.54-2.58,.81-3.57,.81-2.1,0-3.75-.43-4.96-1.29-1.2-.86-2.18-2.33-2.92-4.41l-4.91-13.68c-1.24,1.44-2.44,2.85-3.61,4.23-1.17,1.38-2.22,2.75-3.15,4.11-.93,1.36-1.67,2.7-2.22,4.02-.56,1.32-.87,2.66-.93,4.02-.12,.68-.68,1.35-1.67,2.01-.99,.66-2.56,.99-4.73,.99-.93,0-2.02-.11-3.29-.33-1.27-.22-2.49-.53-3.66-.93-1.17-.4-2.18-.89-3.01-1.47-.83-.58-1.25-1.23-1.25-1.95s.43-1.73,1.3-3.03c.86-1.3,2.25-3.07,4.17-5.31s4.36-5.04,7.32-8.4c2.97-3.36,6.55-7.44,10.75-12.24-.31-.84-.57-1.5-.79-1.98-.22-.48-.46-.86-.74-1.14-.28-.28-.63-.46-1.07-.54-.43-.08-1.02-.12-1.76-.12-1.36,0-2.55,.12-3.57,.35-1.02,.23-1.99,.5-2.92,.79-.93,.29-1.84,.56-2.73,.79-.9,.23-1.87,.35-2.92,.35-.74,0-1.44-.24-2.09-.72-.65-.48-1.22-1.1-1.71-1.85-.5-.76-.9-1.58-1.21-2.48-.31-.89-.46-1.74-.46-2.54,0-1.39,.69-2.47,2.08-3.22,1.39-.76,3.1-.94,5.14-.54,1.54-.32,3.23-.58,5.05-.78,1.82-.2,3.69-.3,5.61-.3,4.08,0,7.32,.45,9.73,1.35,2.41,.9,3.92,2.25,4.54,4.05l10.19,29.94c.18,.56,.73,1.2,1.62,1.92,.9,.72,1.96,1.14,3.2,1.26,1.36-.28,2.32-.22,2.87,.18,.56,.4,.83,.96,.83,1.68,0,.6-.45,1.31-1.34,2.13Z"/></svg>